<svg viewBox="0 0 1000 1000" xmlns="http://www.w3.org/2000/svg"><path d="m326.68 894.22q19.24 0 28.12 8.15t8.89 25.35v61.46h-19.24v-58.86q0-19.44-21.8-19.44a33.1 33.1 0 0 0 -17.77 5 47.79 47.79 0 0 1 1.29 11.84v61.46h-19.24v-58.86q0-19.44-21.8-19.44a55.61 55.61 0 0 0 -19.42 3.52v74.78h-19.23v-85.33a84.77 84.77 0 0 1 20.06-7 102.71 102.71 0 0 1 22.62-2.68q18 0 26.75 7a71.16 71.16 0 0 1 30.77-6.95zm102.93 97.78q-22 0-33.07-12.59t-11.08-36.65q0-48.69 44-48.68 22.17 0 33.34 12.49t11.18 36.19q0 23.68-11.54 36.46t-32.83 12.78zm-.19-16.48q25.29 0 25.28-32.76 0-16.29-6-24.34t-19.24-8.06q-13.37 0-19.14 8.24t-5.77 24.16q0 15.91 5.95 24.34t18.92 8.38zm108.79-81.26q20.52 0 31.14 12.4t10.65 35.13q0 27.4-12.73 38.78t-32.36 11.43q-39.39 0-39.39-21.1v-111.85h19.06v40.95a57.17 57.17 0 0 1 12-4.17 51.75 51.75 0 0 1 11.63-1.61zm-4.77 80.89q15 0 21-8.7t6-23.88q0-15.54-6.32-23.69t-18.77-8.14a44.67 44.67 0 0 0 -10.72 1.38 37.65 37.65 0 0 0 -10 4v50q-.05 9 18.81 8.99zm68.3-111.25h20.52v17.59h-20.52zm.55 32.95h19.24l.18 92.37h-19.42zm46.5 92.37v-128.13h19.06v128.09zm83.51-95.22q21.44 0 31.42 14t9.8 39.15h-64.52q.93 13.7 8 20.83t20.06 7.12a61.57 61.57 0 0 0 29.68-7.59v18.14q-14.29 6.35-32.74 6.35-20.7 0-32.52-12.68t-11.81-36q0-23.88 11.17-36.55t31.46-12.77zm-.55 16q-9.71 0-15.2 5.19t-7.15 17.58h44.52q-1.29-11.85-6.6-17.3t-15.57-5.47zm-183.75-761.54q-31.83-7.87-49-7.88c-85.39 0-154.62 69-154.62 154.09s69.26 154.1 154.62 154.1 154.63-69 154.63-154.1a154.18 154.18 0 0 0 -4.46-36.89l122.93-33.11a279.1 279.1 0 0 1 -36.65 224.24l-203.56 377.39h-188.58l134-247c.73-1.36-1.42-4.36-3.22-4.52-143.19-13-255.35-133-255.35-279.09 0-154.79 125.9-280.26 281.22-280.26a281.81 281.81 0 0 1 83.86 12.67z" fill="#006e53" fill-rule="evenodd"/><circle cx="498.07" cy="294.67" fill="#d6e806" r="84.75"/><path d="m644.46 236.89a153.65 153.65 0 0 0 -79-82.83m132.94 59.71a218.49 218.49 0 0 0 -109.79-115.57m161.8 98.24a273.23 273.23 0 0 0 -144.47-150.24" fill="none" stroke="#d6e806" stroke-linecap="round" stroke-width="19.261964"/></svg>
