<svg viewBox="0 0 1000 1000" xmlns="http://www.w3.org/2000/svg"><path d="m10 10.01h980v979.97h-980z" fill="#ffc325"/><path d="m24.9 500c0-102.35 212.71-185.33 475.1-185.33s475.1 83 475.1 185.34-212.7 185.3-475.1 185.3-475.1-82.97-475.1-185.31z" fill="#006891"/><path d="m24.9 500c0-102.35 212.71-185.33 475.1-185.33s475.1 83 475.1 185.34-212.7 185.3-475.1 185.3-475.1-82.97-475.1-185.31z" fill="none" stroke="#006891" stroke-miterlimit="3.8636" stroke-width="1.405088"/><g fill-rule="evenodd"><path d="m199.02 590.08 49.31-184.07h77.83v108.26h.51l52.8-108.26h79.06l-49.31 184.07h-51.39l31.61-118.07h-.51l-62.77 118.07h-41.15v-118.07h-.84l-31.61 118.07z" fill="#fff"/><path d="m472.44 593.72 7-26.16h56.72l-7.01 26.16z" fill="#ee4034"/><path d="m481.4 560.21 28.69-107.02h-51.56l12.65-47.18h159.83l-12.64 47.18h-51.56l-28.68 106.99z" fill="#ffc325"/><path d="m594.36 590.08 49.28-184.07h55.7l25.13 98.49h.49l26.38-98.49h51.49l-49.29 184.07h-52.99l-27.29-100.53h-.49l-26.92 100.53z" fill="#fff"/></g></svg>